# xmcd
#
# Track frame offsets: 
#        150
#        23444
#        41763
#        61453
#        81729
#        102615
#        125077
#        143763
#        164522
#        183685
#
# Disc length: 2689 seconds
#
# Revision: 2
# Processed by: cddbd v1.5.2PL0 Copyright (c) Steve Scherf et al.
# Submitted via: ExactAudioCopy v1.3
#
DISCID=950a7f0a
DTITLE=McFadden and Whitehead - Movin' On
DYEAR=1983
DGENRE=Funk
TTITLE0=One More Time
TTITLE1=Without You
TTITLE2=Tired Of Your Lies
TTITLE3=Are You Lonely
TTITLE4=Not With Me
TTITLE5=Movin' On
TTITLE6=Everything I do
TTITLE7=Trying To Get Back (To The Love I Lost)
TTITLE8=Riding On The Crest
TTITLE9=The Best Of Me
EXTD=
EXTT0=
EXTT1=
EXTT2=
EXTT3=
EXTT4=
EXTT5=
EXTT6=
EXTT7=
EXTT8=
EXTT9=
PLAYORDER=
